<svg width="256" height="256" viewBox="0 0 256 256" fill="none" xmlns="http://www.w3.org/2000/svg">
<g clip-path="url(#clip0_35_22)">
<mask id="path-2-inside-1_35_22" fill="white">
<path d="M128 0C198.692 0 256 57.3076 256 128C256 198.692 198.692 256 128 256C111.898 256 96.4917 253.025 82.2979 247.598V224.599C82.2976 217.695 76.7012 212.099 69.7979 212.099C62.8944 212.099 57.2981 217.695 57.2979 224.599V234.716C22.7655 211.791 0 172.555 0 128C0 57.3076 57.3076 0 128 0Z"/>
</mask>
<path d="M128 0C198.692 0 256 57.3076 256 128C256 198.692 198.692 256 128 256C111.898 256 96.4917 253.025 82.2979 247.598V224.599C82.2976 217.695 76.7012 212.099 69.7979 212.099C62.8944 212.099 57.2981 217.695 57.2979 224.599V234.716C22.7655 211.791 0 172.555 0 128C0 57.3076 57.3076 0 128 0Z" fill="#FF7BE5"/>
<path d="M82.2979 247.598H81.2979V248.286L81.9407 248.532L82.2979 247.598ZM82.2979 224.599L83.2979 224.599L83.2979 224.599L82.2979 224.599ZM69.7979 212.099L69.7979 211.099L69.7979 211.099L69.7979 212.099ZM57.2979 224.599L56.2979 224.599V224.599H57.2979ZM57.2979 234.716L56.7448 235.549L58.2979 236.58V234.716H57.2979ZM128 0V1C198.14 1 255 57.8598 255 128H256H257C257 56.7553 199.245 -1 128 -1V0ZM256 128H255C255 198.14 198.14 255 128 255V256V257C199.245 257 257 199.245 257 128H256ZM128 256V255C112.022 255 96.7367 252.048 82.655 246.664L82.2979 247.598L81.9407 248.532C96.2467 254.002 111.774 257 128 257V256ZM82.2979 247.598H83.2979V224.599H82.2979H81.2979V247.598H82.2979ZM82.2979 224.599L83.2979 224.599C83.2976 217.143 77.2535 211.099 69.7979 211.099L69.7979 212.099L69.7978 213.099C76.1489 213.099 81.2976 218.248 81.2979 224.599L82.2979 224.599ZM69.7979 212.099L69.7979 211.099C62.3421 211.099 56.2981 217.143 56.2979 224.599L57.2979 224.599L58.2979 224.599C58.2981 218.248 63.4468 213.099 69.7979 213.099L69.7979 212.099ZM57.2979 224.599H56.2979V234.716H57.2979H58.2979V224.599H57.2979ZM57.2979 234.716L57.8509 233.883C23.5858 211.136 1 172.206 1 128H0H-1C-1 172.904 21.9452 212.447 56.7448 235.549L57.2979 234.716ZM0 128H1C1 57.8598 57.8598 1 128 1V0V-1C56.7553 -1 -1 56.7553 -1 128H0Z" fill="white" mask="url(#path-2-inside-1_35_22)"/>
<rect x="99.322" y="67.0991" width="110" height="25" rx="12.5" fill="white"/>
<rect x="82.2978" y="67.0991" width="125.387" height="25" rx="12.5" transform="rotate(90 82.2978 67.0991)" fill="white"/>
<rect x="32.2977" y="67.0991" width="50" height="25" rx="12.5" fill="white"/>
<rect x="99.322" y="117.292" width="110" height="25" rx="12.5" fill="white"/>
<rect x="99.322" y="167.486" width="110" height="25" rx="12.5" fill="white"/>
</g>
<defs>
<clipPath id="clip0_35_22">
<rect width="256" height="256" rx="128" fill="white"/>
</clipPath>
</defs>
</svg>
